<?xml version="1.0" encoding="utf-8"?>
<!-- Generator: Adobe Illustrator 23.0.0, SVG Export Plug-In . SVG Version: 6.00 Build 0)  -->
<svg version="1.1" id="Capa_1" xmlns="http://www.w3.org/2000/svg" xmlns:xlink="http://www.w3.org/1999/xlink" x="0px" y="0px"
	 viewBox="0 0 1920 1080" style="enable-background:new 0 0 1920 1080;" xml:space="preserve">
<style type="text/css">
	.st0{fill:#FFFFFF;}
</style>
<g>
	<g>
		<path class="st0" d="M711.51,477.35c18.72,20.82,35.2,43.01,39.67,71.64c2.4,15.35,0.64,30.64-4.81,45.28
			c-3.98,10.68-11.61,18.05-22.43,21.62c-14.72,4.86-29.82,6.4-44.95,2.3c-5.13-1.39-9.74-4.63-14.69-6.78
			c-4.36-1.89-8.73-4.06-13.33-5.02c-8.99-1.89-15.9,2.05-20.82,9.46c-4.83,7.29-8.25,15.17-8.87,24.05
			c-0.03,0.36-0.25,0.71-1.05,1.09c-0.12-1.53-0.03-3.12-0.4-4.59c-1.94-7.73-4.56-15.21-9.47-21.62
			c-7.01-9.16-17.25-11.35-28.21-6.17c-1.79,0.84-3.61,1.7-5.23,2.82c-12.5,8.66-26.51,10.22-41.04,8.31
			c-6.87-0.9-13.83-2.28-20.32-4.63c-12.46-4.51-19.37-14.33-22.72-26.8c-7.13-26.53-3.69-51.62,10.29-75.31
			c7.61-12.9,16.44-24.85,27.43-35.34c-0.52,1.12-1.03,2.25-1.57,3.36c-9.45,19.34-17.55,39.18-21.99,60.34
			c-1.94,9.23-2.78,18.54-1.85,27.99c1.67,17.06,11.12,27.5,27.11,32.65c23.28,7.49,42.81,0.6,59.94-15.52
			c2.35-2.21,4.48-4.65,6.87-7.16c7.11,9.62,14.16,19.16,21.56,29.15c7.22-9.77,14.3-19.35,21.1-28.55
			c2.46,2.22,4.94,4.38,7.34,6.62c12.41,11.58,26.55,19.33,44.04,18.39c11.96-0.64,23.29-3.83,32.4-12.25
			c8.16-7.54,10.57-17.46,10.94-28.07c0.51-14.5-2.37-28.53-7.28-41.99c-5.24-14.36-11.52-28.35-17.35-42.5
			c-0.34-0.83-0.71-1.64-1.07-2.45C711.02,477.57,711.27,477.46,711.51,477.35z"/>
		<path class="st0" d="M670.43,510.75c4.13,4.26,13.83,5.95,18.51,3.57c2.68-1.36,4.09-4.75,2.7-8.12
			c-1.13-2.74-2.62-5.62-4.72-7.61c-18.35-17.31-38.91-30.86-64.33-35c-4.45-0.73-9.5,0.78-14.02,2.1
			c-20.23,5.93-37.37,17.24-52.72,31.37c-2.59,2.39-4.66,5.67-6.06,8.94c-1.97,4.6,0.44,8.2,5.35,9.14
			c5.35,1.03,12.47-0.86,15.63-4.4c-1.29-0.72-2.7-1.2-3.67-2.14c-1.17-1.14-2.79-2.74-2.69-4.02c0.11-1.51,1.55-3.47,2.96-4.24
			c3.81-2.08,7.77-1.28,11.25,1.01c3.44,2.26,3.81,5.92,3.02,9.53c-1.49,6.84-4.85,12.12-12.38,13.69
			c-9.67,2.01-19.1,2.39-27.48-3.99c-5.84-4.45-7.69-10.88-5.42-17.86c2.01-6.18,5.78-11.3,10.03-16.07
			c9.03-10.13,30.5-27.24,61.83-40.35c8.3-4.17,16.57-4.03,24.95-0.01c38.56,15.53,49.63,25.2,67.49,47.86
			c1.5,2.23,2.78,4.67,3.76,7.18c3.52,9,0.2,17.61-8.62,21.67c-9.44,4.34-19.11,3.82-28.51-0.2c-7.65-4.39-9.86-9.02-7.55-17.27
			c1.69-5.86,11.46-8.42,15.88-4.17c2.26,2.17,2.01,5.15-0.66,6.87C673.59,509.11,672.11,509.83,670.43,510.75z"/>
		<g>
			<g>
				<path class="st0" d="M620.66,592.11c-7.69-19.82-18.02-37.78-33.99-52.32c9.75-4.69,17.25-11.55,23.28-19.91
					c6.04-8.38,9.81-17.74,10.58-28.35c2.62,22.18,14.8,37.55,33.87,48.43C638.67,554.37,628.29,572.29,620.66,592.11z
					 M619.85,537.51c-3.48,0.04-6.23,2.96-6.12,6.49c0.11,3.41,2.84,6.01,6.27,5.98c3.35-0.03,6.15-2.8,6.2-6.13
					C626.26,540.47,623.25,537.47,619.85,537.51z"/>
			</g>
		</g>
		<path class="st0" d="M580.16,576.96c-3.67,18.56-24.48,13.2-17.1-0.23c1.61-3.22,3.35-3.37,3.14-6.57
			c-0.32-4.92-6.74-8.1-11.74-8.22c-0.58-0.01-8.45-0.07-10.99,5.86c-1.8,4.19,0.36,8.33,0.71,8.97
			c8.94,13.65-14.28,14.05-14.92,0.93C525.75,539.04,589.47,549.11,580.16,576.96z"/>
		<path class="st0" d="M518.25,556.66c0.83-9.65,0.19-20.09,7.65-28.88c3.91,12.12,14.58,13.19,23.73,15.26
			C539.58,547.4,528.99,552,518.25,556.66z"/>
		<path class="st0" d="M723.05,556.68c-10.69-4.66-21.23-9.26-31.27-13.63c8.97-2.13,19.79-3.09,23.6-15.32
			C722.82,536.56,722.22,546.99,723.05,556.68z"/>
		<g>
			<path class="st0" d="M619.89,417c4.42-0.02,7.99,3.46,8.05,7.83c0.06,4.47-3.62,8.1-8.16,8.05c-4.36-0.05-7.92-3.65-7.89-8
				C611.92,420.55,615.5,417.02,619.89,417z"/>
		</g>
		<g>
			<path class="st0" d="M459.69,589.53c-0.02,4.37-3.57,7.95-7.9,7.98c-4.46,0.03-8.07-3.68-7.98-8.2c0.08-4.39,3.69-7.89,8.05-7.82
				C456.2,581.56,459.71,585.16,459.69,589.53z"/>
		</g>
		<g>
			<path class="st0" d="M797.52,589.36c0.06,4.39-3.37,8-7.74,8.15c-4.43,0.15-8.18-3.52-8.18-8.02c0-4.37,3.55-7.96,7.9-8
				C793.85,581.45,797.46,585,797.52,589.36z"/>
		</g>
		<path class="st0" d="M710.45,576.33c-3.67,18.56-24.48,13.2-17.1-0.23c1.61-3.22,3.35-3.37,3.14-6.57
			c-0.32-4.92-6.74-8.1-11.74-8.22c-0.58-0.01-8.45-0.07-10.99,5.86c-1.8,4.19,0.36,8.33,0.71,8.97
			c8.94,13.65-14.28,14.05-14.92,0.93C656.04,538.41,719.77,548.48,710.45,576.33z"/>
	</g>
</g>
<g>
	<path class="st0" d="M828.75,488.48h58.86c5.61,0,10.5,0.94,14.68,2.8c4.18,1.87,7.67,4.35,10.47,7.45
		c2.8,3.1,4.89,6.64,6.27,10.62c1.38,3.98,2.07,8.04,2.07,12.17c0,3.74-0.59,7.43-1.77,11.06c-1.18,3.64-2.93,6.96-5.24,9.96
		c-2.31,3-5.21,5.53-8.7,7.6c-3.49,2.07-7.55,3.39-12.17,3.98c0.89,3.15,2.11,6.02,3.69,8.63c1.57,2.61,3.93,4.87,7.08,6.79
		c3.15,1.92,7.25,3.42,12.32,4.5c5.06,1.08,11.43,1.72,19.1,1.92l0.15,15.78c-8.36,0-15.54-0.54-21.54-1.62
		c-6-1.08-11.06-2.56-15.19-4.42c-4.13-1.87-7.47-4.06-10.03-6.56c-2.56-2.51-4.62-5.19-6.2-8.04c-1.57-2.85-2.78-5.8-3.62-8.85
		c-0.84-3.05-1.55-6.05-2.14-9c-4.13-0.88-8.04-1.92-11.73-3.1c-3.69-1.18-7.65-1.77-11.88-1.77c-1.08,0-2.16,0.05-3.25,0.15
		c-1.08,0.1-2.16,0.25-3.24,0.44v42.78h-18V488.48z M846.75,534.35c2.16-0.59,4.15-1.01,5.97-1.25c1.82-0.25,3.51-0.37,5.09-0.37
		c2.95,0,5.56,0.32,7.82,0.96c2.26,0.64,4.45,1.35,6.56,2.14c2.11,0.79,4.28,1.5,6.49,2.14c2.21,0.64,4.7,0.96,7.45,0.96
		c2.85,0,5.33-0.49,7.45-1.47c2.11-0.98,3.88-2.29,5.31-3.91c1.42-1.62,2.51-3.49,3.25-5.6c0.74-2.11,1.11-4.25,1.11-6.42
		c0-2.16-0.37-4.3-1.11-6.42c-0.74-2.11-1.82-3.98-3.25-5.61c-1.43-1.62-3.2-2.92-5.31-3.91c-2.12-0.98-4.6-1.48-7.45-1.48h-39.39
		V534.35z"/>
	<path class="st0" d="M1069.2,591.74h-19.18l-9.15-17.7c-4.03,1.48-7.62,2.51-10.77,3.1c-3.15,0.59-6.1,0.89-8.85,0.89
		c-3.54,0-6.71-0.39-9.52-1.18c-2.8-0.78-5.48-1.64-8.04-2.58c-2.56-0.93-5.07-1.79-7.52-2.58c-2.46-0.79-5.16-1.18-8.11-1.18
		c-1.97,0-4.03,0.22-6.2,0.66c-2.16,0.44-4.52,1.21-7.08,2.29c-0.79,2.85-1.43,5.78-1.92,8.78c-0.49,3-0.74,6.17-0.74,9.51
		l-18.59,0.15c0-7.67,1.13-14.78,3.39-21.32c2.26-6.54,5.11-12.71,8.56-18.51c3.44-5.8,7.15-11.36,11.14-16.67
		c3.98-5.31,7.69-10.57,11.14-15.78c3.44-5.21,6.29-10.5,8.56-15.86c2.26-5.36,3.39-10.94,3.39-16.74h16.08L1069.2,591.74z
		 M1009.9,514c-1.87,3.64-4.01,7.23-6.42,10.77c-2.41,3.54-4.89,7.11-7.45,10.69c-2.56,3.59-5.14,7.23-7.75,10.92
		c-2.61,3.69-4.99,7.55-7.15,11.58c2.56-0.78,4.84-1.33,6.86-1.62c2.01-0.3,3.91-0.44,5.68-0.44c3.05,0,5.7,0.37,7.97,1.11
		c2.26,0.74,4.45,1.57,6.56,2.51c2.11,0.94,4.25,1.77,6.42,2.51c2.16,0.74,4.72,1.1,7.67,1.1c1.67,0,3.49-0.15,5.46-0.44
		c1.97-0.29,4.13-0.83,6.49-1.62L1009.9,514z"/>
	<path class="st0" d="M1204.03,591.74h-19.18l-9.15-17.7c-4.03,1.48-7.62,2.51-10.77,3.1c-3.15,0.59-6.1,0.89-8.85,0.89
		c-3.54,0-6.71-0.39-9.51-1.18c-2.8-0.78-5.48-1.64-8.04-2.58c-2.56-0.93-5.07-1.79-7.52-2.58c-2.46-0.79-5.16-1.18-8.11-1.18
		c-1.97,0-4.03,0.22-6.2,0.66c-2.16,0.44-4.52,1.21-7.08,2.29c-0.79,2.85-1.43,5.78-1.92,8.78c-0.49,3-0.74,6.17-0.74,9.51
		l-18.59,0.15c0-7.67,1.13-14.78,3.39-21.32c2.26-6.54,5.11-12.71,8.56-18.51c3.44-5.8,7.15-11.36,11.14-16.67
		c3.98-5.31,7.69-10.57,11.14-15.78c3.44-5.21,6.29-10.5,8.56-15.86c2.26-5.36,3.39-10.94,3.39-16.74h16.08L1204.03,591.74z
		 M1144.73,514c-1.87,3.64-4.01,7.23-6.42,10.77c-2.41,3.54-4.89,7.11-7.45,10.69c-2.56,3.59-5.14,7.23-7.75,10.92
		c-2.61,3.69-4.99,7.55-7.15,11.58c2.56-0.78,4.84-1.33,6.86-1.62c2.01-0.3,3.91-0.44,5.68-0.44c3.05,0,5.7,0.37,7.97,1.11
		c2.26,0.74,4.45,1.57,6.57,2.51c2.11,0.94,4.25,1.77,6.42,2.51c2.16,0.74,4.72,1.1,7.67,1.1c1.67,0,3.49-0.15,5.46-0.44
		c1.96-0.29,4.13-0.83,6.49-1.62L1144.73,514z"/>
	<path class="st0" d="M1252.41,593.21l-52.37-104.74h19.03l38.79,76.27c2.16-5.51,4.72-10.69,7.67-15.56
		c2.95-4.87,6.07-9.49,9.37-13.87c3.29-4.38,6.54-8.56,9.74-12.54c3.19-3.98,6.07-7.89,8.63-11.73c2.56-3.84,4.62-7.6,6.2-11.29
		c1.57-3.69,2.36-7.45,2.36-11.29h18.15c0.49,5.41-0.37,10.57-2.58,15.49c-2.21,4.92-5.14,9.83-8.78,14.75
		c-3.64,4.92-7.65,9.93-12.02,15.05c-4.38,5.11-8.46,10.65-12.25,16.6c-3.79,5.95-6.96,12.42-9.51,19.4
		c-2.56,6.98-3.83,14.75-3.83,23.31h-0.59v0.15H1252.41z"/>
	<path class="st0" d="M1437.1,591.74h-19.18l-9.15-17.7c-4.03,1.48-7.62,2.51-10.77,3.1c-3.15,0.59-6.1,0.89-8.85,0.89
		c-3.54,0-6.71-0.39-9.51-1.18c-2.8-0.78-5.48-1.64-8.04-2.58c-2.56-0.93-5.07-1.79-7.52-2.58c-2.46-0.79-5.16-1.18-8.11-1.18
		c-1.97,0-4.03,0.22-6.2,0.66c-2.17,0.44-4.52,1.21-7.08,2.29c-0.79,2.85-1.43,5.78-1.92,8.78c-0.49,3-0.74,6.17-0.74,9.51
		l-18.59,0.15c0-7.67,1.13-14.78,3.39-21.32c2.26-6.54,5.11-12.71,8.55-18.51c3.44-5.8,7.16-11.36,11.14-16.67
		c3.98-5.31,7.69-10.57,11.14-15.78c3.44-5.21,6.29-10.5,8.55-15.86c2.26-5.36,3.39-10.94,3.39-16.74h16.08L1437.1,591.74z
		 M1377.8,514c-1.87,3.64-4.01,7.23-6.42,10.77c-2.41,3.54-4.89,7.11-7.45,10.69c-2.56,3.59-5.14,7.23-7.74,10.92
		c-2.61,3.69-4.99,7.55-7.16,11.58c2.56-0.78,4.84-1.33,6.86-1.62c2.02-0.3,3.91-0.44,5.68-0.44c3.05,0,5.7,0.37,7.97,1.11
		c2.26,0.74,4.45,1.57,6.56,2.51c2.11,0.94,4.25,1.77,6.42,2.51c2.16,0.74,4.72,1.1,7.67,1.1c1.67,0,3.49-0.15,5.46-0.44
		c1.96-0.29,4.13-0.83,6.49-1.62L1377.8,514z"/>
</g>
</svg>
