<?xml version="1.0" encoding="utf-8"?>
<!-- Generator: Adobe Illustrator 23.0.0, SVG Export Plug-In . SVG Version: 6.00 Build 0)  -->
<svg version="1.1" id="Capa_1" xmlns="http://www.w3.org/2000/svg" xmlns:xlink="http://www.w3.org/1999/xlink" x="0px" y="0px"
	 viewBox="0 0 1920 1080" style="enable-background:new 0 0 1920 1080;" xml:space="preserve">
<style type="text/css">
	.st0{fill:#FFFFFF;}
</style>
<g>
	<path class="st0" d="M281.02,429.24h136.7c13.03,0,24.39,2.18,34.09,6.5c9.71,4.34,17.81,10.1,24.32,17.3
		c6.5,7.2,11.36,15.42,14.56,24.66c3.2,9.24,4.81,18.67,4.81,28.26c0,8.69-1.37,17.26-4.11,25.69c-2.74,8.45-6.8,16.16-12.17,23.13
		s-12.1,12.84-20.2,17.65c-8.11,4.81-17.53,7.87-28.26,9.24c2.07,7.32,4.9,13.98,8.57,20.04c3.65,6.06,9.13,11.31,16.44,15.77
		c7.32,4.46,16.84,7.94,28.61,10.45c11.75,2.51,26.55,3.99,44.36,4.46l0.35,36.65c-19.42,0-36.09-1.25-50.02-3.76
		s-25.69-5.95-35.28-10.26c-9.59-4.34-17.35-9.43-23.29-15.23c-5.95-5.83-10.73-12.05-14.4-18.67c-3.65-6.62-6.46-13.47-8.41-20.55
		c-1.95-7.08-3.6-14.05-4.97-20.9c-9.59-2.04-18.67-4.46-27.24-7.2s-17.77-4.11-27.59-4.11c-2.51,0-5.02,0.12-7.55,0.35
		c-2.51,0.23-5.02,0.58-7.52,1.02v99.35H281V429.24H281.02z M322.83,535.77c5.02-1.37,9.64-2.35,13.86-2.9
		c4.23-0.58,8.15-0.86,11.82-0.86c6.85,0,12.91,0.74,18.16,2.23c5.25,1.49,10.33,3.14,15.23,4.97c4.9,1.83,9.94,3.48,15.07,4.97
		c5.13,1.49,10.92,2.23,17.3,2.23c6.62,0,12.38-1.14,17.3-3.41c4.9-2.28,9.01-5.32,12.33-9.08c3.3-3.76,5.83-8.11,7.55-13.01
		c1.72-4.9,2.58-9.87,2.58-14.91c0-5.02-0.86-9.99-2.58-14.91c-1.72-4.9-4.23-9.24-7.55-13.03c-3.32-3.76-7.43-6.78-12.33-9.08
		c-4.92-2.28-10.68-3.44-17.3-3.44H322.8v70.23H322.83z"/>
	<path class="st0" d="M839.44,669.05H794.9l-21.25-41.11c-9.36,3.44-17.7,5.83-25.01,7.2c-7.32,1.37-14.17,2.07-20.55,2.07
		c-8.22,0-15.58-0.91-22.11-2.74c-6.5-1.81-12.73-3.81-18.67-5.99c-5.95-2.16-11.77-4.16-17.46-5.99
		c-5.71-1.83-11.98-2.74-18.83-2.74c-4.58,0-9.36,0.51-14.4,1.53c-5.02,1.02-10.5,2.81-16.44,5.32c-1.83,6.62-3.32,13.42-4.46,20.39
		c-1.14,6.97-1.72,14.33-1.72,22.09l-43.17,0.35c0-17.81,2.62-34.33,7.87-49.51c5.25-15.19,11.87-29.52,19.88-42.99
		c7.99-13.47,16.61-26.38,25.87-38.71c9.24-12.33,17.86-24.55,25.87-36.65c7.99-12.1,14.61-24.39,19.88-36.83
		c5.25-12.45,7.87-25.41,7.87-38.88h37.34L839.44,669.05z M701.73,488.51c-4.34,8.45-9.31,16.79-14.91,25.01
		c-5.6,8.22-11.36,16.51-17.3,24.83c-5.95,8.34-11.94,16.79-18,25.36c-6.06,8.57-11.59,17.53-16.61,26.89
		c5.95-1.81,11.24-3.09,15.93-3.76c4.67-0.7,9.08-1.02,13.19-1.02c7.08,0,13.24,0.86,18.51,2.58c5.25,1.72,10.33,3.65,15.23,5.83
		c4.9,2.18,9.87,4.11,14.91,5.83c5.02,1.72,10.96,2.55,17.81,2.55c3.88,0,8.11-0.35,12.68-1.02c4.58-0.67,9.59-1.93,15.07-3.76
		L701.73,488.51z"/>
	<path class="st0" d="M1152.57,669.05h-44.54l-21.25-41.11c-9.36,3.44-17.7,5.83-25.01,7.2c-7.32,1.37-14.17,2.07-20.55,2.07
		c-8.22,0-15.58-0.91-22.09-2.74c-6.5-1.81-12.73-3.81-18.67-5.99c-5.95-2.16-11.77-4.16-17.46-5.99
		c-5.71-1.83-11.98-2.74-18.83-2.74c-4.58,0-9.36,0.51-14.4,1.53c-5.02,1.02-10.5,2.81-16.44,5.32c-1.83,6.62-3.32,13.42-4.46,20.39
		c-1.14,6.97-1.72,14.33-1.72,22.09l-43.17,0.35c0-17.81,2.62-34.33,7.87-49.51s11.87-29.52,19.88-42.99
		c7.99-13.47,16.61-26.38,25.87-38.71c9.24-12.33,17.86-24.55,25.87-36.65c7.99-12.1,14.61-24.39,19.88-36.83
		c5.25-12.45,7.87-25.41,7.87-38.88h37.34L1152.57,669.05z M1014.86,488.51c-4.34,8.45-9.31,16.79-14.91,25.01
		c-5.6,8.22-11.36,16.51-17.3,24.83c-5.95,8.34-11.94,16.79-18,25.36c-6.06,8.57-11.59,17.53-16.61,26.89
		c5.95-1.81,11.24-3.09,15.93-3.76c4.67-0.7,9.08-1.02,13.19-1.02c7.08,0,13.24,0.86,18.51,2.58c5.25,1.72,10.33,3.65,15.26,5.83
		c4.9,2.18,9.87,4.11,14.91,5.83c5.02,1.72,10.96,2.55,17.81,2.55c3.88,0,8.11-0.35,12.68-1.02c4.55-0.67,9.59-1.93,15.07-3.76
		L1014.86,488.51z"/>
	<path class="st0" d="M1264.93,672.47l-121.62-243.25h44.2l90.09,177.13c5.02-12.8,10.96-24.83,17.81-36.14
		c6.85-11.31,14.1-22.04,21.76-32.21c7.64-10.17,15.19-19.88,22.62-29.12c7.41-9.24,14.1-18.32,20.04-27.24
		c5.95-8.92,10.73-17.65,14.4-26.22c3.65-8.57,5.48-17.3,5.48-26.22h42.15c1.14,12.56-0.86,24.55-5.99,35.97
		c-5.13,11.43-11.94,22.83-20.39,34.26c-8.45,11.43-17.77,23.06-27.92,34.95c-10.17,11.87-19.65,24.73-28.45,38.55
		c-8.8,13.82-16.16,28.84-22.09,45.05c-5.95,16.21-8.89,34.26-8.89,54.14h-1.37v0.35L1264.93,672.47L1264.93,672.47z"/>
	<path class="st0" d="M1693.86,669.05h-44.54l-21.25-41.11c-9.36,3.44-17.7,5.83-25.01,7.2c-7.32,1.37-14.17,2.07-20.55,2.07
		c-8.22,0-15.58-0.91-22.09-2.74c-6.5-1.81-12.73-3.81-18.67-5.99c-5.95-2.16-11.77-4.16-17.46-5.99
		c-5.71-1.83-11.98-2.74-18.83-2.74c-4.58,0-9.36,0.51-14.4,1.53c-5.04,1.02-10.5,2.81-16.44,5.32c-1.83,6.62-3.32,13.42-4.46,20.39
		c-1.14,6.97-1.72,14.33-1.72,22.09l-43.17,0.35c0-17.81,2.62-34.33,7.87-49.51s11.87-29.52,19.86-42.99
		c7.99-13.47,16.63-26.38,25.87-38.71c9.24-12.33,17.86-24.55,25.87-36.65c7.99-12.1,14.61-24.39,19.86-36.83s7.87-25.41,7.87-38.88
		h37.34L1693.86,669.05z M1556.14,488.51c-4.34,8.45-9.31,16.79-14.91,25.01c-5.6,8.22-11.36,16.51-17.3,24.83
		c-5.95,8.34-11.94,16.79-17.98,25.36c-6.06,8.57-11.59,17.53-16.63,26.89c5.95-1.81,11.24-3.09,15.93-3.76
		c4.69-0.7,9.08-1.02,13.19-1.02c7.08,0,13.24,0.86,18.51,2.58c5.25,1.72,10.33,3.65,15.24,5.83c4.9,2.18,9.87,4.11,14.91,5.83
		c5.02,1.72,10.96,2.55,17.81,2.55c3.88,0,8.11-0.35,12.68-1.02c4.55-0.67,9.59-1.93,15.07-3.76L1556.14,488.51z"/>
</g>
</svg>
