<?xml version="1.0" encoding="utf-8"?>
<!-- Generator: Adobe Illustrator 23.0.0, SVG Export Plug-In . SVG Version: 6.00 Build 0)  -->
<svg version="1.1" id="Capa_1" xmlns="http://www.w3.org/2000/svg" xmlns:xlink="http://www.w3.org/1999/xlink" x="0px" y="0px"
	 viewBox="0 0 1920 1080" style="enable-background:new 0 0 1920 1080;" xml:space="preserve">
<style type="text/css">
	.st0{fill:#02B9F4;}
	.st1{fill:#93E1ED;}
	.st2{fill:#018ABE;}
	.st3{fill:#005C9D;}
</style>
<g>
	<g>
		<path class="st0" d="M1096.13,299.18c32.4,36.03,60.92,74.44,68.66,123.99c4.15,26.57,1.12,53.03-8.33,78.36
			c-6.89,18.48-20.09,31.24-38.82,37.42c-25.48,8.41-51.61,11.08-77.79,3.99c-8.88-2.4-16.85-8.01-25.42-11.73
			c-7.54-3.28-15.11-7.02-23.06-8.69c-15.57-3.28-27.52,3.55-36.03,16.37c-8.37,12.61-14.28,26.26-15.35,41.63
			c-0.04,0.63-0.44,1.23-1.81,1.89c-0.21-2.65-0.05-5.4-0.69-7.95c-3.36-13.37-7.89-26.32-16.38-37.42
			c-12.14-15.85-29.85-19.65-48.83-10.68c-3.1,1.46-6.25,2.94-9.04,4.88c-21.63,14.98-45.87,17.69-71.02,14.38
			c-11.89-1.56-23.94-3.95-35.17-8.02c-21.56-7.81-33.53-24.79-39.33-46.38c-12.34-45.92-6.39-89.34,17.81-130.35
			c13.18-22.33,28.46-43,47.48-61.16c-0.9,1.94-1.77,3.9-2.71,5.82c-16.36,33.47-30.38,67.8-38.05,104.43
			c-3.35,15.98-4.8,32.08-3.2,48.45c2.89,29.53,19.24,47.6,46.92,56.51c40.29,12.97,74.08,1.03,103.74-26.86
			c4.06-3.82,7.75-8.05,11.89-12.39c12.31,16.64,24.51,33.15,37.31,50.46c12.5-16.91,24.76-33.5,36.53-49.42
			c4.27,3.84,8.55,7.58,12.71,11.46c21.48,20.05,45.95,33.45,76.23,31.83c20.71-1.11,40.31-6.62,56.08-21.2
			c14.12-13.05,18.29-30.22,18.93-48.59c0.88-25.09-4.11-49.37-12.6-72.67c-9.07-24.86-19.94-49.06-30.02-73.55
			c-0.59-1.43-1.24-2.83-1.86-4.25C1095.29,299.55,1095.71,299.36,1096.13,299.18z"/>
		<path class="st0" d="M1025.04,356.99c7.15,7.37,23.93,10.3,32.03,6.18c4.64-2.36,7.08-8.22,4.67-14.06
			c-1.96-4.73-4.53-9.73-8.18-13.17c-31.75-29.96-67.34-53.41-111.34-60.58c-7.71-1.26-16.43,1.34-24.26,3.63
			c-35.01,10.26-64.68,29.84-91.25,54.3c-4.48,4.13-8.07,9.82-10.49,15.46c-3.42,7.95,0.76,14.18,9.27,15.82
			c9.26,1.78,21.58-1.49,27.04-7.61c-2.23-1.25-4.68-2.07-6.34-3.7c-2.02-1.98-4.83-4.74-4.66-6.96c0.2-2.62,2.68-6,5.12-7.33
			c6.59-3.6,13.45-2.22,19.47,1.74c5.96,3.91,6.59,10.25,5.23,16.5c-2.58,11.85-8.4,20.98-21.42,23.69
			c-16.74,3.48-33.06,4.14-47.56-6.9c-10.11-7.7-13.32-18.83-9.38-30.91c3.49-10.69,10-19.56,17.36-27.82
			c15.63-17.54,52.79-47.15,107-69.84c14.36-7.22,28.68-6.97,43.19-0.01c66.73,26.88,85.9,43.61,116.81,82.83
			c2.59,3.86,4.82,8.09,6.51,12.42c6.09,15.57,0.34,30.48-14.92,37.5c-16.34,7.51-33.07,6.6-49.34-0.35
			c-13.24-7.6-17.07-15.61-13.07-29.88c2.92-10.14,19.83-14.58,27.48-7.22c3.91,3.76,3.48,8.92-1.13,11.89
			C1030.5,354.14,1027.94,355.39,1025.04,356.99z"/>
		<g>
			<g>
				<path class="st1" d="M938.9,497.8c-13.31-34.31-31.19-65.39-58.82-90.55c16.88-8.12,29.85-19.99,40.29-34.47
					c10.45-14.5,16.98-30.71,18.32-49.06c4.54,38.39,25.62,64.98,58.62,83.82C970.07,432.48,952.1,463.5,938.9,497.8z M937.5,403.29
					c-6.02,0.06-10.78,5.12-10.59,11.24c0.18,5.9,4.91,10.41,10.85,10.35c5.79-0.06,10.64-4.85,10.74-10.6
					C948.59,408.43,943.39,403.23,937.5,403.29z"/>
			</g>
		</g>
		<path class="st0" d="M868.8,471.57c-6.36,32.12-42.36,22.84-29.59-0.41c2.79-5.58,5.8-5.83,5.44-11.37
			c-0.55-8.52-11.67-14.03-20.32-14.22c-1.01-0.02-14.62-0.12-19.02,10.14c-3.11,7.25,0.63,14.41,1.23,15.53
			c15.48,23.62-24.71,24.32-25.81,1.61C774.63,405.94,884.92,423.37,868.8,471.57z"/>
		<path class="st0" d="M761.66,436.44c1.43-16.71,0.32-34.77,13.23-49.98c6.76,20.98,25.24,22.82,41.07,26.41
			C798.57,420.42,780.25,428.38,761.66,436.44z"/>
		<path class="st0" d="M1116.11,436.47c-18.51-8.07-36.75-16.02-54.12-23.59c15.53-3.69,34.24-5.35,40.84-26.51
			C1115.71,401.66,1114.66,419.71,1116.11,436.47z"/>
		<g>
			<path class="st2" d="M937.57,194.73c7.65-0.03,13.83,5.98,13.93,13.56c0.1,7.73-6.27,14.02-14.12,13.93
				c-7.55-0.08-13.71-6.32-13.66-13.84C923.77,200.87,929.97,194.76,937.57,194.73z"/>
		</g>
		<g>
			<path class="st2" d="M660.3,493.34c-0.04,7.57-6.18,13.76-13.68,13.81c-7.72,0.05-13.97-6.37-13.81-14.2
				c0.15-7.59,6.39-13.66,13.93-13.54C654.26,479.54,660.34,485.78,660.3,493.34z"/>
		</g>
		<g>
			<path class="st2" d="M1245,493.04c0.11,7.59-5.83,13.85-13.39,14.1c-7.67,0.26-14.15-6.1-14.15-13.89
				c0-7.56,6.14-13.79,13.67-13.85C1238.64,479.34,1244.89,485.48,1245,493.04z"/>
		</g>
		<path class="st0" d="M1094.3,470.49c-6.36,32.12-42.36,22.84-29.59-0.41c2.79-5.58,5.8-5.83,5.44-11.37
			c-0.55-8.52-11.67-14.03-20.32-14.22c-1.01-0.02-14.62-0.12-19.02,10.14c-3.11,7.25,0.63,14.41,1.23,15.53
			c15.48,23.62-24.71,24.32-25.81,1.61C1000.13,404.86,1110.43,422.28,1094.3,470.49z"/>
	</g>
</g>
<g>
	<path class="st3" d="M632.75,650.48h58.86c5.61,0,10.5,0.94,14.68,2.8c4.18,1.87,7.67,4.35,10.47,7.45
		c2.8,3.1,4.89,6.64,6.27,10.62c1.38,3.98,2.07,8.04,2.07,12.17c0,3.74-0.59,7.43-1.77,11.06c-1.18,3.64-2.93,6.96-5.24,9.96
		c-2.31,3-5.21,5.53-8.7,7.6c-3.49,2.07-7.55,3.39-12.17,3.98c0.89,3.15,2.11,6.02,3.69,8.63c1.57,2.61,3.93,4.87,7.08,6.79
		c3.15,1.92,7.25,3.42,12.32,4.5c5.06,1.08,11.43,1.72,19.1,1.92l0.15,15.78c-8.36,0-15.54-0.54-21.54-1.62
		c-6-1.08-11.06-2.56-15.19-4.42c-4.13-1.87-7.47-4.06-10.03-6.56c-2.56-2.51-4.62-5.19-6.2-8.04c-1.57-2.85-2.78-5.8-3.62-8.85
		c-0.84-3.05-1.55-6.05-2.14-9c-4.13-0.88-8.04-1.92-11.73-3.1c-3.69-1.18-7.65-1.77-11.88-1.77c-1.08,0-2.16,0.05-3.25,0.15
		c-1.08,0.1-2.16,0.25-3.24,0.44v42.78h-18V650.48z M650.75,696.35c2.16-0.59,4.15-1.01,5.97-1.25c1.82-0.25,3.51-0.37,5.09-0.37
		c2.95,0,5.56,0.32,7.82,0.96c2.26,0.64,4.45,1.35,6.56,2.14c2.11,0.79,4.28,1.5,6.49,2.14c2.21,0.64,4.7,0.96,7.45,0.96
		c2.85,0,5.33-0.49,7.45-1.47c2.11-0.98,3.88-2.29,5.31-3.91c1.42-1.62,2.51-3.49,3.25-5.6c0.74-2.11,1.11-4.25,1.11-6.42
		c0-2.16-0.37-4.3-1.11-6.42c-0.74-2.11-1.82-3.98-3.25-5.61c-1.43-1.62-3.2-2.92-5.31-3.91c-2.12-0.98-4.6-1.48-7.45-1.48h-39.39
		V696.35z"/>
	<path class="st3" d="M873.2,753.74h-19.18l-9.15-17.7c-4.03,1.48-7.62,2.51-10.77,3.1c-3.15,0.59-6.1,0.89-8.85,0.89
		c-3.54,0-6.71-0.39-9.52-1.18c-2.8-0.78-5.48-1.64-8.04-2.58c-2.56-0.93-5.07-1.79-7.52-2.58c-2.46-0.79-5.16-1.18-8.11-1.18
		c-1.97,0-4.03,0.22-6.2,0.66c-2.16,0.44-4.52,1.21-7.08,2.29c-0.79,2.85-1.43,5.78-1.92,8.78c-0.49,3-0.74,6.17-0.74,9.51
		l-18.59,0.15c0-7.67,1.13-14.78,3.39-21.32c2.26-6.54,5.11-12.71,8.56-18.51c3.44-5.8,7.15-11.36,11.14-16.67
		c3.98-5.31,7.69-10.57,11.14-15.78c3.44-5.21,6.29-10.5,8.56-15.86c2.26-5.36,3.39-10.94,3.39-16.74h16.08L873.2,753.74z
		 M813.9,676c-1.87,3.64-4.01,7.23-6.42,10.77c-2.41,3.54-4.89,7.11-7.45,10.69c-2.56,3.59-5.14,7.23-7.75,10.92
		c-2.61,3.69-4.99,7.55-7.15,11.58c2.56-0.78,4.84-1.33,6.86-1.62c2.01-0.3,3.91-0.44,5.68-0.44c3.05,0,5.7,0.37,7.97,1.11
		c2.26,0.74,4.45,1.57,6.56,2.51c2.11,0.94,4.25,1.77,6.42,2.51c2.16,0.74,4.72,1.1,7.67,1.1c1.67,0,3.49-0.15,5.46-0.44
		c1.97-0.29,4.13-0.83,6.49-1.62L813.9,676z"/>
	<path class="st3" d="M1008.03,753.74h-19.18l-9.15-17.7c-4.03,1.48-7.62,2.51-10.77,3.1c-3.15,0.59-6.1,0.89-8.85,0.89
		c-3.54,0-6.71-0.39-9.51-1.18c-2.8-0.78-5.48-1.64-8.04-2.58c-2.56-0.93-5.07-1.79-7.52-2.58c-2.46-0.79-5.16-1.18-8.11-1.18
		c-1.97,0-4.03,0.22-6.2,0.66c-2.16,0.44-4.52,1.21-7.08,2.29c-0.79,2.85-1.43,5.78-1.92,8.78c-0.49,3-0.74,6.17-0.74,9.51
		l-18.59,0.15c0-7.67,1.13-14.78,3.39-21.32c2.26-6.54,5.11-12.71,8.56-18.51c3.44-5.8,7.15-11.36,11.14-16.67
		c3.98-5.31,7.69-10.57,11.14-15.78c3.44-5.21,6.29-10.5,8.56-15.86c2.26-5.36,3.39-10.94,3.39-16.74h16.08L1008.03,753.74z
		 M948.73,676c-1.87,3.64-4.01,7.23-6.42,10.77c-2.41,3.54-4.89,7.11-7.45,10.69c-2.56,3.59-5.14,7.23-7.75,10.92
		c-2.61,3.69-4.99,7.55-7.15,11.58c2.56-0.78,4.84-1.33,6.86-1.62c2.01-0.3,3.91-0.44,5.68-0.44c3.05,0,5.7,0.37,7.97,1.11
		c2.26,0.74,4.45,1.57,6.57,2.51c2.11,0.94,4.25,1.77,6.42,2.51c2.16,0.74,4.72,1.1,7.67,1.1c1.67,0,3.49-0.15,5.46-0.44
		c1.96-0.29,4.13-0.83,6.49-1.62L948.73,676z"/>
	<path class="st3" d="M1056.41,755.21l-52.37-104.74h19.03l38.79,76.27c2.16-5.51,4.72-10.69,7.67-15.56
		c2.95-4.87,6.07-9.49,9.37-13.87c3.29-4.38,6.54-8.56,9.74-12.54c3.19-3.98,6.07-7.89,8.63-11.73c2.56-3.84,4.62-7.6,6.2-11.29
		c1.57-3.69,2.36-7.45,2.36-11.29h18.15c0.49,5.41-0.37,10.57-2.58,15.49c-2.21,4.92-5.14,9.83-8.78,14.75
		c-3.64,4.92-7.65,9.93-12.02,15.05c-4.38,5.11-8.46,10.65-12.25,16.6c-3.79,5.95-6.96,12.42-9.51,19.4
		c-2.56,6.98-3.83,14.75-3.83,23.31h-0.59v0.15H1056.41z"/>
	<path class="st3" d="M1241.1,753.74h-19.18l-9.15-17.7c-4.03,1.48-7.62,2.51-10.77,3.1c-3.15,0.59-6.1,0.89-8.85,0.89
		c-3.54,0-6.71-0.39-9.51-1.18c-2.8-0.78-5.48-1.64-8.04-2.58c-2.56-0.93-5.07-1.79-7.52-2.58c-2.46-0.79-5.16-1.18-8.11-1.18
		c-1.97,0-4.03,0.22-6.2,0.66c-2.17,0.44-4.52,1.21-7.08,2.29c-0.79,2.85-1.43,5.78-1.92,8.78c-0.49,3-0.74,6.17-0.74,9.51
		l-18.59,0.15c0-7.67,1.13-14.78,3.39-21.32c2.26-6.54,5.11-12.71,8.55-18.51c3.44-5.8,7.16-11.36,11.14-16.67
		c3.98-5.31,7.69-10.57,11.14-15.78c3.44-5.21,6.29-10.5,8.55-15.86c2.26-5.36,3.39-10.94,3.39-16.74h16.08L1241.1,753.74z
		 M1181.8,676c-1.87,3.64-4.01,7.23-6.42,10.77c-2.41,3.54-4.89,7.11-7.45,10.69c-2.56,3.59-5.14,7.23-7.74,10.92
		c-2.61,3.69-4.99,7.55-7.16,11.58c2.56-0.78,4.84-1.33,6.86-1.62c2.02-0.3,3.91-0.44,5.68-0.44c3.05,0,5.7,0.37,7.97,1.11
		c2.26,0.74,4.45,1.57,6.56,2.51c2.11,0.94,4.25,1.77,6.42,2.51c2.16,0.74,4.72,1.1,7.67,1.1c1.67,0,3.49-0.15,5.46-0.44
		c1.96-0.29,4.13-0.83,6.49-1.62L1181.8,676z"/>
</g>
</svg>
