<?xml version="1.0" encoding="utf-8"?>
<!-- Generator: Adobe Illustrator 23.0.0, SVG Export Plug-In . SVG Version: 6.00 Build 0)  -->
<svg version="1.1" id="Capa_1" xmlns="http://www.w3.org/2000/svg" xmlns:xlink="http://www.w3.org/1999/xlink" x="0px" y="0px"
	 viewBox="0 0 1920 1080" style="enable-background:new 0 0 1920 1080;" xml:space="preserve">
<g>
	<g>
		<path d="M1223.32,376.5c54.43,60.54,102.37,125.08,115.37,208.34c6.98,44.65,1.87,89.11-13.99,131.67
			c-11.57,31.05-33.75,52.49-65.22,62.88c-42.82,14.14-86.72,18.61-130.72,6.7c-14.92-4.04-28.31-13.45-42.71-19.71
			c-12.67-5.5-25.39-11.8-38.75-14.61c-26.16-5.5-46.23,5.96-60.54,27.51c-14.06,21.19-23.99,44.12-25.8,69.95
			c-0.07,1.06-0.73,2.07-3.04,3.18c-0.35-4.46-0.09-9.08-1.16-13.36c-5.65-22.47-13.26-44.23-27.53-62.87
			c-20.4-26.64-50.16-33.01-82.04-17.95c-5.2,2.46-10.49,4.94-15.2,8.19c-36.35,25.17-77.08,29.72-119.34,24.17
			c-19.98-2.63-40.22-6.63-59.1-13.47c-36.23-13.12-56.33-41.66-66.08-77.94c-20.74-77.16-10.74-150.11,29.92-219.02
			c22.14-37.53,47.81-72.25,79.77-102.76c-1.52,3.26-2.98,6.55-4.56,9.78c-27.49,56.24-51.04,113.93-63.94,175.47
			c-5.63,26.84-8.07,53.91-5.38,81.41c4.86,49.61,32.33,79.98,78.83,94.95c67.7,21.79,124.48,1.74,174.3-45.13
			c6.83-6.42,13.02-13.52,19.98-20.81c20.68,27.96,41.19,55.71,62.69,84.78c21.01-28.42,41.6-56.28,61.38-83.04
			c7.17,6.45,14.37,12.73,21.36,19.25c36.09,33.69,77.21,56.21,128.08,53.48c34.79-1.87,67.72-11.13,94.22-35.62
			c23.73-21.93,30.72-50.77,31.81-81.64c1.48-42.15-6.9-82.96-21.18-122.11c-15.24-41.77-33.5-82.44-50.45-123.58
			c-0.99-2.4-2.08-4.76-3.12-7.14C1221.9,377.13,1222.61,376.82,1223.32,376.5z"/>
		<path d="M1103.87,473.64c12.02,12.39,40.21,17.3,53.82,10.39c7.8-3.96,11.89-13.81,7.84-23.63c-3.29-7.96-7.6-16.34-13.74-22.13
			c-53.35-50.35-113.15-89.74-187.07-101.79c-12.95-2.11-27.61,2.25-40.76,6.11c-58.82,17.24-108.68,50.15-153.32,91.24
			c-7.54,6.94-13.55,16.5-17.63,25.98c-5.74,13.37,1.28,23.83,15.57,26.58c15.57,2.99,36.26-2.5,45.44-12.78
			c-3.75-2.1-7.86-3.48-10.66-6.21c-3.4-3.32-8.12-7.96-7.84-11.69c0.33-4.4,4.51-10.09,8.6-12.32c11.07-6.06,22.59-3.73,32.72,2.93
			c10.01,6.57,11.08,17.22,8.79,27.72c-4.33,19.9-14.11,35.25-36,39.8c-28.14,5.85-55.55,6.95-79.92-11.6
			c-16.99-12.94-22.38-31.63-15.76-51.94c5.86-17.97,16.8-32.86,29.17-46.74c26.27-29.47,88.7-79.22,179.8-117.35
			c24.14-12.13,48.18-11.72,72.57-0.01c112.12,45.17,144.33,73.27,196.27,139.18c4.36,6.49,8.1,13.59,10.94,20.87
			c10.23,26.16,0.58,51.22-25.07,63.01c-27.46,12.62-55.57,11.1-82.91-0.59c-22.24-12.76-28.68-26.23-21.96-50.21
			c4.91-17.03,33.33-24.5,46.18-12.13c6.57,6.32,5.84,14.98-1.9,19.98C1113.05,468.86,1108.74,470.95,1103.87,473.64z"/>
		<g>
			<g>
				<path d="M959.14,710.25c-22.37-57.65-52.4-109.86-98.84-152.16c28.36-13.65,50.16-33.59,67.7-57.91
					c17.56-24.36,28.54-51.6,30.78-82.44c7.62,64.51,43.05,109.19,98.5,140.85C1011.51,600.48,981.31,652.6,959.14,710.25z
					 M956.78,551.45c-10.11,0.11-18.12,8.6-17.8,18.89c0.31,9.92,8.25,17.49,18.23,17.39c9.73-0.1,17.88-8.15,18.04-17.81
					C975.41,560.07,966.67,551.34,956.78,551.45z"/>
			</g>
		</g>
		<path d="M841.34,666.18c-10.68,53.97-71.18,38.37-49.71-0.68c4.68-9.37,9.74-9.79,9.14-19.1c-0.92-14.32-19.61-23.57-34.14-23.9
			c-1.7-0.04-24.57-0.2-31.97,17.03c-5.23,12.17,1.05,24.22,2.06,26.09c26.01,39.69-41.52,40.86-43.37,2.7
			C683.11,555.9,868.43,585.18,841.34,666.18z"/>
		<path d="M661.32,607.15c2.4-28.07,0.54-58.43,22.24-83.98c11.36,35.25,42.4,38.35,69,44.37
			C723.34,580.22,692.55,593.59,661.32,607.15z"/>
		<path d="M1256.9,607.2c-31.1-13.56-61.74-26.92-90.93-39.64c26.1-6.2,57.54-8.99,68.62-44.54
			C1256.21,548.7,1254.46,579.03,1256.9,607.2z"/>
		<g>
			<path d="M956.89,201c12.86-0.05,23.23,10.05,23.4,22.78c0.17,12.99-10.54,23.56-23.72,23.41c-12.69-0.14-23.03-10.62-22.94-23.26
				C933.72,211.31,944.13,201.05,956.89,201z"/>
		</g>
		<g>
			<path d="M491,702.74c-0.07,12.71-10.38,23.12-22.98,23.2c-12.97,0.08-23.47-10.7-23.21-23.85c0.25-12.75,10.74-22.96,23.4-22.75
				C480.85,679.55,491.07,690.04,491,702.74z"/>
		</g>
		<g>
			<path d="M1473.46,702.24c0.18,12.75-9.8,23.27-22.5,23.7c-12.89,0.44-23.78-10.25-23.78-23.34
				c0.01-12.71,10.32-23.16,22.97-23.27C1462.78,679.23,1473.28,689.55,1473.46,702.24z"/>
		</g>
		<path d="M1220.25,664.35c-10.68,53.97-71.18,38.37-49.71-0.68c4.68-9.37,9.74-9.79,9.14-19.1c-0.92-14.32-19.61-23.57-34.14-23.9
			c-1.7-0.04-24.57-0.2-31.97,17.03c-5.23,12.17,1.05,24.22,2.06,26.09c26.01,39.69-41.52,40.86-43.38,2.7
			C1062.02,554.08,1247.34,583.35,1220.25,664.35z"/>
	</g>
</g>
</svg>
